<svg width="150" height="150" viewBox="0 0 150 150" fill="none" xmlns="http://www.w3.org/2000/svg">
<g clip-path="url(#clip0_1_259)">
<path d="M75.0005 0.000488281C33.645 0.000488281 0 33.645 0 75C0 116.355 33.645 150 75.0005 150C116.355 150 150 116.355 150 75C150 33.645 116.355 0.000488281 75.0005 0.000488281ZM75.0005 137.704C40.4245 137.704 12.295 109.576 12.295 75C12.295 40.4245 40.4245 12.2955 75.0005 12.2955C109.576 12.2955 137.705 40.4245 137.705 75C137.705 109.576 109.576 137.704 75.0005 137.704Z" fill="#29A235"/>
<path d="M107.445 46.2145L62.9145 90.7455L42.5549 70.386C40.154 67.9855 36.2619 67.9855 33.8609 70.386C31.4604 72.7869 31.4604 76.679 33.8609 79.08L58.5675 103.787C59.7679 104.987 61.3412 105.587 62.9145 105.587C64.4878 105.587 66.061 104.987 67.2615 103.787L116.139 54.909C118.54 52.508 118.54 48.6159 116.139 46.215C113.738 43.814 109.845 43.814 107.445 46.2145Z" fill="#29A235"/>
</g>
<defs>
<clipPath id="clip0_1_259">
<rect width="150" height="150" fill="white"/>
</clipPath>
</defs>
</svg>
