<svg width="26" height="30" viewBox="0 0 26 30" fill="none" xmlns="http://www.w3.org/2000/svg">
<path d="M18.5676 13.6373V8.11839H19.8361V2.41015H13.596V0H6.41432V2.41015H0.174316V8.11839H1.44282V27.463H11.6874C13.1828 29.0255 15.2878 30 17.6162 30C22.1427 30 25.8253 26.3174 25.8253 21.7909C25.8253 17.5862 22.6475 14.1104 18.5676 13.6373ZM16.6648 13.6373C15.5199 13.7701 14.4461 14.1391 13.4936 14.6945V8.11839H16.6648V13.6373ZM8.31706 1.90275H11.6933V2.41015H8.31706V1.90275ZM2.07706 4.3129H17.9333V6.21564H2.07706V4.3129ZM3.34556 8.11839H6.51681V25.5603H3.34556V8.11839ZM8.41956 25.5603V8.11839H11.5908V16.2221C10.2363 17.6865 9.40715 19.6436 9.40715 21.7909C9.40715 23.1489 9.73892 24.4308 10.3252 25.5603H8.41956ZM17.6162 28.0972C14.1388 28.0972 11.3099 25.2682 11.3099 21.7909C11.3099 18.3136 14.1389 15.4846 17.6162 15.4846C21.0934 15.4846 23.9225 18.3136 23.9225 21.7909C23.9225 25.2682 21.0935 28.0972 17.6162 28.0972Z" fill="#C41616"/>
</svg>
