<svg width="30" height="30" viewBox="0 0 30 30" fill="none" xmlns="http://www.w3.org/2000/svg">
<path d="M29.1275 3.88855V3.41702C29.1275 1.53092 27.5966 0 25.7105 0C23.8244 0 22.2935 1.53092 22.2935 3.41702V3.88855H29.1275Z" fill="black"/>
<path d="M21.1604 26.9137H2.40352C1.55233 26.9137 0.860352 27.6056 0.860352 28.4568C0.860352 29.308 1.55233 30 2.40352 30H23.2792L21.1604 26.9137Z" fill="black"/>
<path d="M20.297 8.40784H2.40352C1.55233 8.40784 0.860352 9.09981 0.860352 9.95101C0.860352 10.8022 1.55233 11.4942 2.40352 11.4942H20.297V8.40784Z" fill="black"/>
<path d="M20.297 14.5744H2.40352C1.55233 14.5744 0.860352 15.2664 0.860352 16.1176C0.860352 16.9688 1.55233 17.6607 2.40352 17.6607H20.297V14.5744Z" fill="black"/>
<path d="M20.297 20.741H2.40352C1.55233 20.741 0.860352 21.4329 0.860352 22.2841C0.860352 23.1353 1.55233 23.8273 2.40352 23.8273H20.297V20.741Z" fill="black"/>
<path d="M22.2993 5.89099V25.052L25.4102 29.5468C25.5571 29.7612 25.8756 29.7612 26.0286 29.5468L29.1395 25.052V5.89099H22.2993Z" fill="black"/>
</svg>
